<?xml version="1.0" encoding="UTF-8" standalone="no"?>
<svg width="562px" xmlns="http://www.w3.org/2000/svg" viewBox="0 0 562 50" version="1.1" height="50px">
 <path d="m151.23 11.239v29.988h2.86v-29.988h-2.86zm27.68 29.988v-29.988h-2.64v12.432h-0.09c-0.28-0.784-0.68-1.47-1.2-2.058-0.51-0.588-1.11-1.085-1.78-1.491s-1.39-0.707-2.16-0.903-1.56-0.294-2.38-0.294c-1.65 0-3.08 0.308-4.3 0.924s-2.23 1.449-3.05 2.499c-0.81 1.05-1.41 2.268-1.8 3.654s-0.59 2.849-0.59 4.389 0.2 3.003 0.59 4.389 0.99 2.604 1.8 3.654c0.82 1.05 1.83 1.876 3.05 2.478s2.65 0.903 4.3 0.903c0.79 0 1.58-0.112 2.38-0.336s1.54-0.539 2.24-0.945 1.33-0.903 1.87-1.491c0.55-0.588 0.96-1.232 1.24-1.932h0.09v4.116h2.43zm-17.34-10.836c0-1.12 0.13-2.233 0.39-3.339 0.27-1.106 0.69-2.093 1.26-2.961 0.58-0.868 1.31-1.575 2.21-2.121s1.97-0.819 3.23-0.819c1.4 0 2.59 0.273 3.55 0.819 0.97 0.546 1.75 1.253 2.35 2.121 0.61 0.868 1.04 1.855 1.31 2.961 0.26 1.106 0.4 2.219 0.4 3.339s-0.14 2.233-0.4 3.339c-0.27 1.106-0.7 2.093-1.31 2.961-0.6 0.868-1.38 1.575-2.35 2.121-0.96 0.546-2.15 0.819-3.55 0.819-1.26 0-2.33-0.273-3.23-0.819s-1.63-1.253-2.21-2.121c-0.57-0.868-0.99-1.855-1.26-2.961-0.26-1.106-0.39-2.219-0.39-3.339zm37.96-1.512h-14.02c0.11-0.98 0.34-1.939 0.69-2.877s0.82-1.764 1.41-2.478c0.58-0.714 1.3-1.288 2.14-1.722s1.8-0.651 2.9-0.651c1.06 0 2.01 0.217 2.85 0.651s1.56 1.008 2.14 1.722c0.59 0.714 1.05 1.533 1.37 2.457s0.5 1.89 0.52 2.898zm-14.02 2.226h16.67c0.06-1.512-0.08-3.003-0.42-4.473s-0.89-2.772-1.66-3.906-1.77-2.051-3-2.751-2.72-1.05-4.45-1.05c-1.71 0-3.19 0.329-4.43 0.987-1.25 0.658-2.27 1.526-3.05 2.604s-1.36 2.303-1.74 3.675-0.57 2.772-0.57 4.2c0 1.54 0.19 3.003 0.57 4.389s0.96 2.604 1.74 3.654 1.8 1.876 3.05 2.478c1.24 0.602 2.72 0.903 4.43 0.903 2.74 0 4.86-0.672 6.36-2.016s2.53-3.248 3.09-5.712h-2.65c-0.42 1.68-1.18 3.024-2.27 4.032s-2.6 1.512-4.53 1.512c-1.26 0-2.34-0.266-3.24-0.798-0.89-0.532-1.64-1.204-2.22-2.016-0.59-0.812-1.02-1.729-1.29-2.751-0.26-1.022-0.39-2.009-0.39-2.961zm19.99-4.914h2.64c0.06-1.764 0.62-3.045 1.68-3.843 1.07-0.798 2.44-1.197 4.12-1.197 0.78 0 1.52 0.063 2.2 0.189 0.69 0.126 1.29 0.357 1.81 0.693s0.92 0.791 1.22 1.365c0.29 0.574 0.44 1.309 0.44 2.205 0 0.588-0.08 1.064-0.23 1.428-0.16 0.364-0.37 0.651-0.65 0.861s-0.63 0.357-1.05 0.441-0.91 0.154-1.47 0.21c-1.43 0.168-2.84 0.343-4.22 0.525-1.39 0.182-2.63 0.497-3.74 0.945s-2 1.099-2.67 1.953-1.01 2.037-1.01 3.549c0 1.092 0.19 2.037 0.57 2.835s0.9 1.456 1.56 1.974c0.65 0.518 1.42 0.896 2.3 1.134 0.89 0.238 1.83 0.357 2.84 0.357 1.06 0 1.98-0.098 2.75-0.294s1.46-0.476 2.06-0.84 1.15-0.819 1.64-1.365 0.97-1.169 1.45-1.869h0.08c0 0.56 0.04 1.071 0.1 1.533 0.08 0.462 0.22 0.861 0.45 1.197 0.22 0.336 0.53 0.595 0.94 0.777s0.95 0.273 1.62 0.273c0.36 0 0.66-0.014 0.9-0.042s0.51-0.07 0.82-0.126v-2.226c-0.25 0.112-0.53 0.168-0.84 0.168-1.04 0-1.55-0.532-1.55-1.596v-11.508c0-1.456-0.24-2.639-0.72-3.549-0.47-0.91-1.09-1.617-1.85-2.121-0.75-0.504-1.61-0.847-2.56-1.029s-1.9-0.273-2.85-0.273c-1.26 0-2.41 0.14-3.45 0.42-1.03 0.28-1.94 0.714-2.71 1.302s-1.38 1.344-1.82 2.268c-0.45 0.924-0.72 2.016-0.8 3.276zm14.11 3.192v3.444c0 1.064-0.2 2.016-0.61 2.856s-0.95 1.554-1.64 2.142c-0.68 0.588-1.49 1.036-2.41 1.344-0.93 0.308-1.89 0.462-2.9 0.462-0.62 0-1.22-0.098-1.81-0.294-0.58-0.196-1.1-0.483-1.55-0.861s-0.8-0.826-1.07-1.344-0.4-1.113-0.4-1.785c0-1.064 0.31-1.883 0.94-2.457 0.64-0.574 1.44-1.015 2.42-1.323s2.06-0.539 3.26-0.693c1.19-0.154 2.34-0.329 3.46-0.525 0.36-0.056 0.78-0.154 1.26-0.294s0.8-0.364 0.97-0.672h0.08zm20.92-3.486h2.64c-0.05-1.176-0.29-2.198-0.71-3.066s-0.99-1.596-1.7-2.184c-0.72-0.588-1.54-1.022-2.48-1.302s-1.95-0.42-3.05-0.42c-0.95 0-1.91 0.112-2.87 0.336-0.97 0.224-1.84 0.574-2.63 1.05-0.78 0.476-1.42 1.106-1.91 1.89s-0.73 1.722-0.73 2.814c0 0.924 0.15 1.701 0.46 2.331s0.73 1.162 1.28 1.596 1.18 0.798 1.91 1.092 1.53 0.553 2.39 0.777l3.41 0.756c0.58 0.14 1.16 0.308 1.74 0.504 0.57 0.196 1.08 0.441 1.53 0.735s0.81 0.658 1.07 1.092c0.27 0.434 0.4 0.973 0.4 1.617 0 0.756-0.19 1.393-0.56 1.911-0.38 0.518-0.87 0.945-1.45 1.281-0.59 0.336-1.23 0.574-1.91 0.714-0.69 0.14-1.36 0.21-2 0.21-1.76 0-3.24-0.455-4.43-1.365s-1.84-2.261-1.95-4.053h-2.65c0.22 2.66 1.13 4.592 2.71 5.796s3.65 1.806 6.19 1.806c1.01 0 2.03-0.112 3.07-0.336s1.97-0.595 2.79-1.113c0.83-0.518 1.51-1.19 2.04-2.016s0.8-1.827 0.8-3.003c0-0.952-0.18-1.778-0.55-2.478-0.36-0.7-0.83-1.288-1.4-1.764-0.58-0.476-1.24-0.861-1.98-1.155s-1.49-0.497-2.25-0.609l-3.52-0.798c-0.45-0.112-0.94-0.259-1.47-0.441-0.54-0.182-1.03-0.413-1.47-0.693-0.45-0.28-0.82-0.623-1.12-1.029-0.29-0.406-0.44-0.903-0.44-1.491 0-0.7 0.16-1.288 0.46-1.764 0.31-0.476 0.72-0.861 1.22-1.155 0.51-0.294 1.06-0.504 1.66-0.63s1.2-0.189 1.79-0.189c0.75 0 1.47 0.091 2.14 0.273s1.26 0.469 1.78 0.861 0.93 0.889 1.24 1.491 0.48 1.309 0.51 2.121zm16.71-6.342l6.97 21.672h2.9l5.29-18.228h0.09l5.33 18.228h2.9l6.97-21.672h-2.81l-5.55 18.564h-0.08l-5.29-18.564h-2.98l-5.3 18.564h-0.08l-5.54-18.564h-2.82zm42.46 1.596c1.26 0 2.37 0.266 3.32 0.798s1.74 1.232 2.38 2.1c0.63 0.868 1.1 1.855 1.42 2.961 0.33 1.106 0.49 2.233 0.49 3.381s-0.16 2.275-0.49 3.381c-0.32 1.106-0.79 2.093-1.42 2.961-0.64 0.868-1.43 1.568-2.38 2.1s-2.06 0.798-3.32 0.798-2.36-0.266-3.31-0.798c-0.96-0.532-1.75-1.232-2.38-2.1s-1.1-1.855-1.43-2.961c-0.32-1.106-0.48-2.233-0.48-3.381s0.16-2.275 0.48-3.381c0.33-1.106 0.8-2.093 1.43-2.961s1.42-1.568 2.38-2.1c0.95-0.532 2.05-0.798 3.31-0.798zm0-2.226c-1.65 0-3.11 0.308-4.38 0.924-1.28 0.616-2.35 1.442-3.22 2.478s-1.52 2.247-1.97 3.633-0.67 2.863-0.67 4.431 0.22 3.045 0.67 4.431 1.1 2.597 1.97 3.633 1.94 1.855 3.22 2.457c1.27 0.602 2.73 0.903 4.38 0.903 1.66 0 3.12-0.301 4.39-0.903 1.28-0.602 2.35-1.421 3.22-2.457 0.86-1.036 1.52-2.247 1.97-3.633s0.67-2.863 0.67-4.431-0.22-3.045-0.67-4.431-1.11-2.597-1.97-3.633c-0.87-1.036-1.94-1.862-3.22-2.478-1.27-0.616-2.73-0.924-4.39-0.924zm14.2 0.63v21.672h2.65v-11.55c0-1.148 0.19-2.205 0.58-3.171 0.4-0.966 0.95-1.799 1.66-2.499 0.72-0.7 1.56-1.239 2.54-1.617s2.08-0.539 3.28-0.483v-2.646c-1.96-0.084-3.65 0.35-5.06 1.302-1.42 0.952-2.46 2.31-3.13 4.074h-0.08v-5.082h-2.44zm17.43 0v-6.51h-2.65v6.51h-3.78v2.226h3.78v14.826c-0.02 1.848 0.31 3.115 1.01 3.801s1.93 1.029 3.7 1.029c0.39 0 0.78-0.014 1.17-0.042 0.4-0.028 0.79-0.042 1.18-0.042v-2.226c-0.76 0.084-1.51 0.126-2.27 0.126-0.95-0.056-1.54-0.329-1.78-0.819s-0.36-1.169-0.36-2.037v-14.616h4.41v-2.226h-4.41zm8.19-8.316v29.988h2.65v-12.642c0.02-1.064 0.2-2.051 0.52-2.961s0.77-1.694 1.35-2.352c0.57-0.658 1.27-1.176 2.1-1.554 0.82-0.378 1.77-0.567 2.83-0.567s1.95 0.168 2.67 0.504c0.71 0.336 1.28 0.798 1.7 1.386s0.71 1.281 0.88 2.079 0.25 1.659 0.25 2.583v13.524h2.65v-13.944c0-1.288-0.13-2.45-0.38-3.486s-0.69-1.911-1.3-2.625c-0.62-0.714-1.44-1.267-2.46-1.659s-2.29-0.588-3.8-0.588c-1.54 0-2.95 0.399-4.24 1.197s-2.19 1.855-2.69 3.171h-0.08v-12.054h-2.65zm47.25 14.658h2.65c-0.06-1.176-0.3-2.198-0.72-3.066s-0.98-1.596-1.7-2.184c-0.71-0.588-1.54-1.022-2.48-1.302s-1.95-0.42-3.04-0.42c-0.95 0-1.91 0.112-2.88 0.336s-1.84 0.574-2.62 1.05c-0.79 0.476-1.42 1.106-1.92 1.89-0.49 0.784-0.73 1.722-0.73 2.814 0 0.924 0.15 1.701 0.46 2.331s0.74 1.162 1.28 1.596c0.55 0.434 1.19 0.798 1.91 1.092 0.73 0.294 1.53 0.553 2.4 0.777l3.4 0.756c0.59 0.14 1.17 0.308 1.74 0.504 0.58 0.196 1.09 0.441 1.54 0.735 0.44 0.294 0.8 0.658 1.07 1.092 0.26 0.434 0.4 0.973 0.4 1.617 0 0.756-0.19 1.393-0.57 1.911s-0.86 0.945-1.45 1.281-1.22 0.574-1.91 0.714-1.35 0.21-2 0.21c-1.76 0-3.24-0.455-4.43-1.365s-1.84-2.261-1.95-4.053h-2.65c0.23 2.66 1.13 4.592 2.71 5.796 1.59 1.204 3.65 1.806 6.2 1.806 1.01 0 2.03-0.112 3.06-0.336 1.04-0.224 1.97-0.595 2.8-1.113 0.82-0.518 1.5-1.19 2.03-2.016 0.54-0.826 0.8-1.827 0.8-3.003 0-0.952-0.18-1.778-0.54-2.478-0.37-0.7-0.84-1.288-1.41-1.764-0.58-0.476-1.23-0.861-1.98-1.155-0.74-0.294-1.49-0.497-2.24-0.609l-3.53-0.798c-0.45-0.112-0.94-0.259-1.47-0.441s-1.02-0.413-1.47-0.693-0.82-0.623-1.11-1.029c-0.3-0.406-0.44-0.903-0.44-1.491 0-0.7 0.15-1.288 0.46-1.764s0.71-0.861 1.22-1.155c0.5-0.294 1.05-0.504 1.66-0.63 0.6-0.126 1.19-0.189 1.78-0.189 0.76 0 1.47 0.091 2.14 0.273s1.27 0.469 1.79 0.861 0.93 0.889 1.24 1.491c0.3 0.602 0.47 1.309 0.5 2.121zm7.22-6.342v29.652h2.65v-12.096h0.08c0.28 0.784 0.68 1.47 1.2 2.058s1.11 1.078 1.79 1.47c0.67 0.392 1.4 0.686 2.18 0.882s1.57 0.294 2.35 0.294c1.65 0 3.09-0.301 4.31-0.903s2.23-1.428 3.04-2.478 1.42-2.268 1.81-3.654 0.59-2.849 0.59-4.389-0.2-3.003-0.59-4.389-1-2.604-1.81-3.654-1.82-1.883-3.04-2.499-2.66-0.924-4.31-0.924c-1.76 0-3.34 0.413-4.72 1.239-1.39 0.826-2.39 1.995-3.01 3.507h-0.08v-4.116h-2.44zm17.35 10.836c0 1.12-0.13 2.233-0.4 3.339s-0.68 2.093-1.26 2.961c-0.57 0.868-1.31 1.575-2.2 2.121-0.9 0.546-1.98 0.819-3.24 0.819-1.4 0-2.58-0.273-3.55-0.819-0.96-0.546-1.75-1.253-2.35-2.121s-1.03-1.855-1.3-2.961-0.4-2.219-0.4-3.339c0-1.232 0.12-2.408 0.36-3.528s0.65-2.1 1.24-2.94c0.58-0.84 1.37-1.512 2.35-2.016s2.2-0.756 3.65-0.756c1.26 0 2.34 0.273 3.24 0.819 0.89 0.546 1.63 1.253 2.2 2.121 0.58 0.868 0.99 1.855 1.26 2.961s0.4 2.219 0.4 3.339zm6.76-10.836v21.672h2.65v-11.55c0-1.148 0.19-2.205 0.59-3.171 0.39-0.966 0.94-1.799 1.66-2.499 0.71-0.7 1.56-1.239 2.54-1.617s2.07-0.539 3.27-0.483v-2.646c-1.96-0.084-3.64 0.35-5.06 1.302-1.41 0.952-2.46 2.31-3.13 4.074h-0.08v-5.082h-2.44zm28.06 9.324h-14.03c0.11-0.98 0.34-1.939 0.69-2.877s0.82-1.764 1.41-2.478 1.3-1.288 2.14-1.722 1.81-0.651 2.9-0.651c1.06 0 2.02 0.217 2.86 0.651s1.55 1.008 2.14 1.722 1.04 1.533 1.36 2.457c0.33 0.924 0.5 1.89 0.53 2.898zm-14.03 2.226h16.67c0.06-1.512-0.08-3.003-0.42-4.473-0.33-1.47-0.88-2.772-1.66-3.906-0.77-1.134-1.77-2.051-3-2.751s-2.71-1.05-4.45-1.05c-1.71 0-3.18 0.329-4.43 0.987s-2.26 1.526-3.05 2.604c-0.78 1.078-1.36 2.303-1.74 3.675s-0.57 2.772-0.57 4.2c0 1.54 0.19 3.003 0.57 4.389s0.96 2.604 1.74 3.654c0.79 1.05 1.8 1.876 3.05 2.478s2.72 0.903 4.43 0.903c2.74 0 4.86-0.672 6.36-2.016s2.53-3.248 3.09-5.712h-2.65c-0.42 1.68-1.17 3.024-2.26 4.032-1.1 1.008-2.61 1.512-4.54 1.512-1.26 0-2.34-0.266-3.23-0.798-0.9-0.532-1.64-1.204-2.23-2.016s-1.01-1.729-1.28-2.751-0.4-2.009-0.4-2.961zm19.99-4.914h2.65c0.05-1.764 0.61-3.045 1.68-3.843 1.06-0.798 2.43-1.197 4.11-1.197 0.79 0 1.52 0.063 2.21 0.189s1.29 0.357 1.81 0.693c0.51 0.336 0.92 0.791 1.21 1.365 0.3 0.574 0.44 1.309 0.44 2.205 0 0.588-0.07 1.064-0.23 1.428-0.15 0.364-0.37 0.651-0.65 0.861s-0.63 0.357-1.05 0.441-0.91 0.154-1.47 0.21c-1.43 0.168-2.83 0.343-4.22 0.525s-2.63 0.497-3.74 0.945c-1.1 0.448-1.99 1.099-2.66 1.953-0.68 0.854-1.01 2.037-1.01 3.549 0 1.092 0.19 2.037 0.56 2.835 0.38 0.798 0.9 1.456 1.56 1.974s1.43 0.896 2.31 1.134 1.83 0.357 2.83 0.357c1.07 0 1.98-0.098 2.76-0.294 0.77-0.196 1.45-0.476 2.05-0.84 0.61-0.364 1.15-0.819 1.64-1.365s0.97-1.169 1.45-1.869h0.08c0 0.56 0.04 1.071 0.11 1.533s0.22 0.861 0.44 1.197 0.54 0.595 0.95 0.777c0.4 0.182 0.94 0.273 1.61 0.273 0.37 0 0.67-0.014 0.91-0.042 0.23-0.028 0.51-0.07 0.81-0.126v-2.226c-0.25 0.112-0.53 0.168-0.84 0.168-1.03 0-1.55-0.532-1.55-1.596v-11.508c0-1.456-0.24-2.639-0.71-3.549-0.48-0.91-1.1-1.617-1.85-2.121-0.76-0.504-1.61-0.847-2.56-1.029-0.96-0.182-1.91-0.273-2.86-0.273-1.26 0-2.41 0.14-3.44 0.42-1.04 0.28-1.94 0.714-2.71 1.302s-1.38 1.344-1.83 2.268-0.71 2.016-0.8 3.276zm14.11 3.192v3.444c0 1.064-0.2 2.016-0.61 2.856-0.4 0.84-0.95 1.554-1.63 2.142-0.69 0.588-1.49 1.036-2.42 1.344-0.92 0.308-1.89 0.462-2.9 0.462-0.61 0-1.21-0.098-1.8-0.294s-1.11-0.483-1.56-0.861c-0.44-0.378-0.8-0.826-1.07-1.344-0.26-0.518-0.4-1.113-0.4-1.785 0-1.064 0.32-1.883 0.95-2.457s1.43-1.015 2.41-1.323 2.07-0.539 3.26-0.693 2.34-0.329 3.46-0.525c0.37-0.056 0.79-0.154 1.26-0.294 0.48-0.14 0.8-0.364 0.97-0.672h0.08zm27.01 11.844v-29.988h-2.65v12.432h-0.08c-0.28-0.784-0.68-1.47-1.2-2.058s-1.11-1.085-1.78-1.491-1.39-0.707-2.17-0.903c-0.77-0.196-1.56-0.294-2.37-0.294-1.65 0-3.08 0.308-4.3 0.924s-2.24 1.449-3.05 2.499-1.41 2.268-1.8 3.654c-0.4 1.386-0.59 2.849-0.59 4.389s0.19 3.003 0.59 4.389c0.39 1.386 0.99 2.604 1.8 3.654s1.83 1.876 3.05 2.478 2.65 0.903 4.3 0.903c0.79 0 1.58-0.112 2.37-0.336 0.8-0.224 1.55-0.539 2.25-0.945s1.32-0.903 1.87-1.491 0.96-1.232 1.24-1.932h0.08v4.116h2.44zm-17.35-10.836c0-1.12 0.14-2.233 0.4-3.339 0.27-1.106 0.69-2.093 1.26-2.961 0.58-0.868 1.31-1.575 2.21-2.121 0.89-0.546 1.97-0.819 3.23-0.819 1.4 0 2.58 0.273 3.55 0.819s1.75 1.253 2.35 2.121c0.61 0.868 1.04 1.855 1.31 2.961 0.26 1.106 0.39 2.219 0.39 3.339s-0.13 2.233-0.39 3.339c-0.27 1.106-0.7 2.093-1.31 2.961-0.6 0.868-1.38 1.575-2.35 2.121s-2.15 0.819-3.55 0.819c-1.26 0-2.34-0.273-3.23-0.819-0.9-0.546-1.63-1.253-2.21-2.121-0.57-0.868-0.99-1.855-1.26-2.961-0.26-1.106-0.4-2.219-0.4-3.339zm22.43-19.152v4.242h2.65v-4.242h-2.65zm0 8.316v21.672h2.65v-21.672h-2.65zm7.69 0v21.672h2.64v-12.642c0.03-1.064 0.21-2.051 0.53-2.961s0.77-1.694 1.34-2.352c0.58-0.658 1.28-1.176 2.1-1.554 0.83-0.378 1.77-0.567 2.84-0.567 1.06 0 1.95 0.168 2.66 0.504 0.72 0.336 1.29 0.798 1.71 1.386s0.71 1.281 0.88 2.079 0.25 1.659 0.25 2.583v13.524h2.65v-13.944c0-1.288-0.13-2.45-0.38-3.486s-0.69-1.911-1.3-2.625c-0.62-0.714-1.44-1.267-2.46-1.659s-2.29-0.588-3.8-0.588c-1.54 0-2.96 0.399-4.24 1.197-1.29 0.798-2.19 1.855-2.69 3.171h-0.09v-3.738h-2.64zm40.91 19.908v-19.908h-2.65v3.738h-0.08c-0.26-0.588-0.61-1.148-1.07-1.68-0.47-0.532-0.99-1.001-1.58-1.407s-1.24-0.721-1.95-0.945c-0.72-0.224-1.48-0.336-2.29-0.336-1.57 0-2.96 0.287-4.18 0.861s-2.24 1.358-3.07 2.352c-0.82 0.994-1.45 2.156-1.89 3.486-0.43 1.33-0.65 2.737-0.65 4.221 0 1.54 0.18 2.989 0.55 4.347 0.36 1.358 0.94 2.541 1.74 3.549s1.81 1.799 3.05 2.373c1.23 0.574 2.71 0.861 4.45 0.861 1.59 0 2.99-0.406 4.18-1.218s2.09-1.89 2.71-3.234h0.08v2.94c0 2.632-0.55 4.648-1.64 6.048s-2.87 2.1-5.33 2.1c-0.73 0-1.44-0.077-2.14-0.231s-1.34-0.399-1.92-0.735c-0.57-0.336-1.06-0.777-1.46-1.323-0.41-0.546-0.68-1.225-0.82-2.037h-2.65c0.08 1.148 0.4 2.135 0.95 2.961 0.54 0.826 1.23 1.505 2.05 2.037 0.83 0.532 1.76 0.924 2.8 1.176 1.03 0.252 2.1 0.378 3.19 0.378 1.76 0 3.25-0.238 4.47-0.714s2.21-1.162 2.96-2.058c0.76-0.896 1.31-1.988 1.66-3.276s0.53-2.73 0.53-4.326zm-9.62-0.714c-1.23 0-2.3-0.245-3.19-0.735-0.9-0.49-1.64-1.134-2.23-1.932s-1.02-1.715-1.3-2.751-0.42-2.1-0.42-3.192c0-1.12 0.13-2.219 0.4-3.297 0.26-1.078 0.69-2.037 1.28-2.877s1.33-1.519 2.22-2.037c0.9-0.518 1.98-0.777 3.24-0.777s2.33 0.266 3.21 0.798 1.6 1.232 2.16 2.1 0.97 1.834 1.22 2.898 0.38 2.128 0.38 3.192c0 1.092-0.15 2.156-0.44 3.192-0.3 1.036-0.74 1.953-1.32 2.751-0.59 0.798-1.32 1.442-2.19 1.932s-1.87 0.735-3.02 0.735z" fill="#888"/>
 <path d="m115.49 0c16.63 0.09765 22.51 12.397 22.51 24.972 0 15.309-8.11 25.021-25.51 25.028h-22.49v-50h25.49zm-3.84 37.205c9.58 0 10.98-7.759 10.98-12.446 0-3.139-0.99-11.873-12.1-11.873h-4.89v24.319h6.01z" fill="#E62B1E"/>
 <path d="m44.996 0h43.004v12.936h-25.992v5.058h25.992v13.982h-25.992v4.999h25.992v13.025h-43.004v-50z" fill="#E62B1E"/>
 <path d="m13.08 12.92h-13.08v-12.92h43v12.92h-12.991v37.106h-16.929v-37.106z" fill="#E62B1E"/>
 <path d="m556.84 5.952v-4h-2.56v4l-3.61-1.408-0.87 2.464 3.72 1.248-2.37 3.136 2.14 1.568 2.24-3.296 2.37 3.296 2.11-1.568-2.37-3.136 3.78-1.248-0.86-2.464-3.72 1.408z" fill="#E62B1E"/>
</svg>
